<?xml version="1.0" standalone="no"?>
<!DOCTYPE svg PUBLIC "-//W3C//DTD SVG 20010904//EN"
 "http://www.w3.org/TR/2001/REC-SVG-20010904/DTD/svg10.dtd">
<svg version="1.0" xmlns="http://www.w3.org/2000/svg"
 width="1024.000000pt" height="1024.000000pt" viewBox="0 0 1024.000000 1024.000000"
 preserveAspectRatio="xMidYMid meet">
<metadata>
Created by potrace 1.14, written by Peter Selinger 2001-2017
</metadata>
<g transform="translate(0.000000,1024.000000) scale(0.100000,-0.100000)"
fill="#000000" stroke="none">
<path d="M5110 10235 c0 -6 -11 -22 -24 -36 -46 -49 -135 -185 -183 -280 -26
-52 -48 -97 -48 -101 0 -3 -3 -10 -7 -14 -5 -4 -8 -16 -8 -26 0 -10 -5 -18
-12 -18 -6 0 -9 -3 -6 -6 3 -3 -2 -29 -12 -58 -11 -29 -21 -64 -23 -77 -3 -13
-10 -42 -15 -64 -23 -89 -36 -216 -35 -350 1 -143 16 -546 27 -690 3 -44 8
-120 11 -170 7 -120 14 -234 21 -325 3 -41 7 -97 9 -125 2 -27 6 -95 10 -150
3 -55 8 -131 11 -170 2 -38 7 -117 10 -175 3 -58 7 -132 9 -165 22 -408 23
-918 0 -1034 -2 -12 -7 -53 -10 -91 -3 -38 -8 -80 -10 -92 -3 -12 -7 -38 -10
-58 -3 -20 -7 -45 -9 -55 -2 -11 -7 -40 -11 -65 -5 -36 -35 -175 -70 -330 -1
-8 -9 -35 -16 -60 -7 -25 -13 -50 -15 -56 -6 -32 -60 -214 -97 -324 -22 -69
-42 -129 -43 -135 -4 -16 -90 -257 -119 -332 -90 -233 -98 -253 -107 -253 -5
0 -8 -6 -8 -13 0 -13 -34 -82 -168 -337 -42 -80 -82 -158 -90 -173 -17 -33 -5
-34 -232 13 -193 39 -259 69 -352 159 -37 36 -68 70 -68 74 0 5 -9 21 -19 36
-52 72 -82 258 -56 346 6 22 12 45 13 50 12 63 75 171 130 219 19 17 44 39 56
49 30 27 134 73 194 87 34 8 85 10 136 6 94 -6 85 -17 72 84 -3 25 -9 68 -12
95 -3 28 -7 61 -8 75 -2 14 -7 57 -11 95 -4 39 -8 77 -10 85 -4 20 -13 90 -21
165 -3 33 -8 68 -9 77 -2 9 -7 48 -10 85 -4 37 -8 79 -11 93 -2 14 -6 45 -9
70 -15 120 -25 199 -30 245 -3 28 -8 66 -10 85 -5 36 -14 109 -20 170 -2 19
-6 53 -9 75 -3 22 -8 65 -12 95 -3 30 -7 66 -9 80 -2 14 -7 50 -10 80 -3 30
-8 66 -10 80 -3 22 -10 80 -20 170 -2 14 -6 57 -10 95 -3 39 -9 84 -11 100 -3
17 -7 46 -10 65 -4 32 -19 118 -28 165 -6 28 -42 178 -60 250 -5 23 -18 61
-25 80 -5 11 -16 45 -26 75 -47 145 -166 414 -221 502 -13 21 -21 38 -17 38 5
0 3 4 -3 8 -6 4 -18 21 -27 37 -15 30 -138 220 -154 240 -5 6 -22 28 -38 50
-131 178 -337 396 -504 535 -24 19 -48 40 -54 45 -84 72 -381 275 -404 275 -4
0 -19 9 -33 20 -14 11 -28 20 -31 20 -4 0 -7 -1667 -7 -3705 0 -3418 2 -3705
17 -3706 9 0 395 -1 857 -1 l842 -1 12 -61 c29 -151 113 -415 176 -551 15 -33
28 -62 28 -65 1 -3 21 -43 45 -90 189 -366 426 -653 776 -939 11 -9 34 -25 50
-35 50 -33 188 -178 230 -244 22 -34 42 -62 45 -62 3 0 13 12 22 28 31 48 43
65 68 96 34 41 158 166 166 166 3 0 11 6 19 12 7 7 24 21 37 31 119 89 332
292 428 406 69 83 170 220 219 297 70 110 74 117 99 164 70 134 86 165 87 170
1 3 14 32 30 65 50 109 137 368 159 475 3 14 8 36 11 50 3 14 8 32 10 40 2 8
4 22 4 31 1 15 72 17 850 17 467 0 853 2 859 6 6 4 10 1293 10 3705 0 3415 -2
3699 -17 3693 -9 -3 -33 -16 -53 -29 -21 -13 -40 -23 -43 -23 -3 0 -11 -5 -18
-10 -7 -6 -55 -38 -107 -72 -52 -34 -97 -64 -100 -67 -3 -4 -32 -26 -65 -51
-33 -24 -65 -49 -71 -55 -6 -5 -28 -23 -49 -40 -21 -16 -66 -56 -99 -88 -34
-32 -72 -69 -86 -81 -94 -84 -278 -300 -371 -436 -24 -36 -47 -67 -50 -70 -9
-8 -113 -181 -145 -240 -16 -30 -33 -58 -37 -61 -5 -3 -9 -10 -9 -15 -1 -15
-22 -59 -31 -65 -5 -3 -8 -9 -8 -13 1 -3 -6 -23 -15 -44 -10 -20 -18 -39 -19
-42 -4 -13 -28 -68 -40 -95 -21 -46 -82 -221 -109 -315 -34 -115 -80 -335 -91
-426 -2 -22 -6 -50 -9 -64 -3 -14 -7 -54 -10 -90 -5 -62 -12 -120 -22 -185 -2
-16 -7 -52 -10 -80 -3 -27 -6 -63 -8 -80 -2 -16 -7 -57 -11 -90 -3 -33 -8 -67
-10 -75 -2 -8 -7 -46 -11 -85 -7 -71 -8 -85 -19 -165 -3 -25 -7 -65 -10 -90
-2 -25 -6 -61 -9 -80 -10 -66 -16 -115 -21 -170 -4 -48 -11 -100 -20 -150 -2
-8 -6 -49 -10 -90 -4 -41 -9 -84 -11 -95 -2 -11 -6 -44 -9 -75 -3 -31 -7 -65
-9 -77 -3 -12 -8 -53 -11 -90 -4 -37 -9 -75 -10 -83 -2 -8 -6 -44 -10 -80 -3
-36 -8 -76 -10 -90 -2 -14 -7 -51 -10 -83 -4 -32 -8 -66 -10 -77 -3 -15 1 -18
28 -14 193 26 366 -42 489 -194 81 -101 120 -272 94 -414 -7 -39 -28 -100 -41
-118 -6 -8 -17 -28 -25 -45 -27 -55 -132 -151 -206 -188 -38 -19 -83 -37 -99
-40 -17 -3 -41 -8 -55 -11 -14 -3 -36 -8 -50 -10 -14 -3 -36 -7 -50 -10 -133
-29 -185 -36 -185 -25 0 3 -6 13 -12 21 -38 45 -300 569 -349 698 -132 344
-287 820 -319 980 -2 8 -8 33 -13 55 -6 22 -13 51 -16 65 -7 34 -14 67 -25
120 -6 25 -13 61 -15 80 -3 19 -7 44 -10 55 -2 11 -7 40 -11 65 -3 25 -8 56
-10 70 -10 58 -20 168 -31 315 -12 148 -6 572 11 895 2 36 6 121 10 190 3 69
8 145 10 170 4 56 14 199 20 305 3 44 7 107 9 140 3 33 7 103 11 155 3 52 8
124 10 160 3 36 7 108 10 160 3 52 7 129 10 170 17 293 22 620 10 725 -16 144
-74 341 -147 495 -56 118 -236 372 -238 335z m-2487 -1917 c74 -95 173 -242
208 -308 13 -25 26 -47 29 -50 15 -13 127 -257 162 -350 37 -99 96 -292 103
-335 2 -11 8 -40 14 -65 11 -49 30 -164 36 -220 3 -19 7 -55 10 -80 3 -25 8
-61 10 -80 1 -19 6 -53 9 -75 3 -22 8 -62 11 -90 3 -27 8 -69 10 -92 3 -24 7
-64 10 -90 3 -27 8 -61 10 -78 3 -16 7 -51 10 -77 3 -27 8 -69 11 -94 3 -25 7
-60 9 -78 2 -17 6 -51 9 -76 4 -25 8 -67 11 -95 2 -27 5 -50 5 -50 1 0 3 -16
6 -35 2 -19 9 -75 15 -125 6 -49 13 -106 14 -125 1 -19 5 -53 8 -75 4 -22 9
-60 12 -85 6 -57 13 -123 20 -176 5 -39 3 -41 -32 -58 -179 -85 -388 -323
-462 -526 -11 -30 -24 -69 -31 -85 l-10 -30 -138 1 c-75 1 -139 2 -142 3 -6 1
-9 3781 -4 3781 2 0 32 -37 67 -82z m5063 -1810 l-1 -1893 -144 0 -144 0 -19
60 c-74 235 -269 471 -481 580 -37 19 -38 21 -32 63 12 96 16 129 19 162 2 19
6 53 9 75 5 35 13 104 22 185 4 36 16 131 20 160 6 37 15 118 20 175 2 28 7
60 9 72 3 12 7 50 10 85 4 35 8 72 10 83 2 11 7 52 10 90 4 39 9 77 11 85 2 8
7 47 10 85 3 39 8 79 10 90 2 11 7 47 11 80 3 33 8 69 9 80 2 11 6 49 10 85 9
86 12 103 25 185 17 111 18 113 55 250 20 72 37 137 39 145 6 24 46 132 62
167 8 17 14 34 14 37 0 14 118 248 164 326 62 106 143 225 214 313 30 37 55
67 56 67 1 0 2 -852 2 -1892z m-2406 -2018 c23 -58 53 -129 66 -158 13 -29 24
-55 24 -57 0 -12 164 -341 219 -439 34 -60 61 -111 61 -113 0 -3 7 -11 15 -20
9 -8 14 -20 13 -25 -2 -5 -45 -27 -97 -48 -51 -21 -130 -62 -176 -92 -90 -57
-244 -188 -266 -226 -12 -22 -14 -21 -93 58 -45 44 -112 103 -151 130 -69 50
-259 150 -286 150 -8 0 -22 7 -31 14 -16 12 -15 19 27 92 24 43 48 84 52 89 4
6 26 46 48 90 21 44 43 83 48 86 5 3 8 9 8 13 -1 3 5 19 13 34 75 145 224 507
296 722 23 69 44 129 47 133 3 5 31 -67 63 -160 31 -92 76 -215 100 -273z
m-2441 -395 c5 -6 16 -32 25 -59 70 -209 214 -398 401 -524 39 -26 72 -47 75
-47 3 -1 24 -11 48 -23 52 -27 166 -69 207 -75 17 -3 57 -12 91 -21 56 -14 97
-23 117 -25 5 -1 6 -5 3 -9 -3 -5 -7 -19 -10 -33 -44 -205 -57 -272 -62 -314
-3 -27 -7 -63 -9 -80 -5 -31 -14 -144 -20 -250 -2 -33 -4 -62 -4 -65 -1 -4
-973 -4 -1122 -1 l-25 1 0 763 c0 419 3 764 7 767 13 9 268 5 278 -5z m4842 6
c3 -1 5 -345 5 -766 l0 -765 -25 -1 c-112 -2 -1123 0 -1126 3 -1 1 -5 62 -9
133 -3 72 -8 144 -10 160 -3 17 -7 50 -10 75 -8 65 -15 105 -32 190 -23 111
-22 110 -35 147 -12 38 -11 42 17 47 11 2 51 12 89 21 39 9 84 19 100 22 43 7
144 43 183 64 17 10 32 16 32 14 0 -3 30 14 68 37 98 61 200 149 276 239 58
69 157 251 172 317 15 66 18 67 165 66 74 -1 136 -2 140 -3z m-3232 -937 c60
-23 121 -55 148 -79 6 -5 30 -26 53 -45 91 -77 165 -202 193 -325 22 -98 25
-122 17 -136 -6 -8 -90 -11 -321 -12 l-314 0 1 74 c2 107 6 161 15 187 5 14 5
22 -2 22 -6 0 -7 5 -4 10 4 6 8 23 11 38 4 26 34 177 38 197 6 23 18 71 23 87
5 22 50 16 142 -18z m1478 24 c9 -12 44 -151 48 -188 1 -8 4 -28 8 -45 17 -79
25 -162 31 -292 l5 -93 -30 -1 c-172 -3 -599 0 -607 4 -30 19 39 256 101 346
30 44 110 128 156 164 38 30 155 86 213 101 67 18 64 18 75 4z m-1072 -1140
c11 -7 13 -1043 2 -1054 -6 -6 -31 21 -93 96 -16 19 -31 37 -35 40 -16 14
-147 205 -188 275 -55 94 -124 234 -158 325 -30 76 -81 235 -87 267 -3 13 -7
27 -11 33 -3 5 -4 13 -1 18 5 9 557 9 571 0z m1093 -1 c5 -10 -5 -58 -30 -142
-11 -38 -20 -72 -20 -75 0 -3 -9 -22 -19 -42 -11 -21 -17 -38 -15 -38 15 0
-178 -388 -204 -410 -3 -3 -18 -25 -34 -50 -43 -68 -140 -192 -185 -241 -23
-23 -41 -46 -41 -51 0 -4 -6 -8 -12 -8 -10 0 -13 111 -12 527 1 291 2 530 3
533 2 9 566 6 569 -3z"/>
</g>
</svg>
